M48
; DRILL file {KiCad (5.1.0-0)} date 2020年03月17日 火曜日 17:02:37
; FORMAT={-:-/ absolute / metric / decimal}
; #@! TF.CreationDate,2020-03-17T17:02:37+09:00
; #@! TF.GenerationSoftware,Kicad,Pcbnew,(5.1.0-0)
FMAT,2
METRIC
T1C0.800
T2C0.900
T3C1.000
T4C1.040
T5C1.500
T6C2.500
%
G90
G05
T1
X55.054Y23.282
X65.214Y23.282
T2
X56.341Y3.5
X58.341Y3.5
X60.341Y3.5
X68.389Y3.5
X70.389Y3.5
X72.389Y3.5
X79.0Y8.0
X81.54Y8.0
T3
X78.38Y14.0
X80.92Y14.0
X83.46Y14.0
X86.0Y14.0
X15.5Y51.0
X18.0Y51.0
X57.086Y41.824
X64.686Y41.824
T4
X23.3Y48.72
X23.3Y46.18
X23.3Y43.64
X23.3Y41.1
X23.3Y38.56
X23.3Y36.02
X23.3Y33.48
X23.3Y30.94
X23.3Y28.4
X23.3Y25.86
X23.3Y23.32
X23.3Y20.78
X23.3Y18.24
X23.3Y15.7
X23.3Y13.16
X23.3Y10.62
X23.3Y8.08
X23.3Y5.54
X23.3Y3.0
X48.7Y48.72
X48.7Y46.18
X48.7Y43.64
X48.7Y41.1
X48.7Y38.56
X48.7Y36.02
X48.7Y33.48
X48.7Y30.94
X48.7Y28.4
X48.7Y25.86
X48.7Y23.32
X48.7Y20.78
X48.7Y18.24
X48.7Y15.7
X48.7Y13.16
X48.7Y10.62
X48.7Y8.08
X48.7Y5.54
X48.7Y3.0
T5
X54.241Y3.5
X62.441Y3.5
X66.29Y3.5
X74.489Y3.5
T6
X5.0Y5.0
X5.0Y57.0
X87.0Y57.0
X73.197Y45.009
X73.197Y17.009
X8.197Y45.009
X87.0Y5.0
X8.197Y17.009
T0
M30
